<svg width="682" height="631" viewBox="0 0 682 631" fill="none" xmlns="http://www.w3.org/2000/svg">
<path d="M617.361 406.144C557.465 451.965 512.367 501.724 482.067 555.421C451.767 609.118 405.612 633.818 343.602 629.523C281.592 625.227 235.79 597.305 206.194 545.756C176.598 494.207 128.682 446.596 62.4442 402.922C-3.79352 359.249 -16.4773 305.91 24.3927 242.906C65.2628 179.902 116.703 143.388 178.712 133.364C240.722 123.341 303.437 92.1969 366.856 39.932C430.275 -12.3329 490.523 -11.9749 547.6 41.0059C604.677 93.9868 645.547 156.633 670.21 228.945C694.873 301.256 677.257 360.323 617.361 406.144Z" fill="#D3FFFE" stroke="#5BC0BE"/>
</svg>
