<svg width="1440" height="346" viewBox="0 0 1440 346" fill="none" xmlns="http://www.w3.org/2000/svg">
<path fill-rule="evenodd" clip-rule="evenodd" d="M-1 0L33.2709 0C68.5497 0 137.092 0 206.641 29C275.183 58 344.733 116 413.275 152C482.824 188 552.374 202 620.916 180C690.466 159 759.007 101 828.557 101C897.099 101 966.649 159 1036.2 195C1104.74 231 1174.29 245 1242.83 231C1312.38 216 1380.92 173 1416.2 152L1450.47 130V346H1416.2C1380.92 346 1312.38 346 1242.83 346C1174.29 346 1104.74 346 1036.2 346C966.649 346 897.099 346 828.557 346C759.007 346 690.466 346 620.916 346C552.374 346 482.824 346 413.275 346C344.733 346 275.183 346 206.641 346C137.092 346 68.5497 346 33.2709 346H-1L-1 0Z" fill="#EAFFFF"/>
</svg>
